<svg xmlns="http://www.w3.org/2000/svg" width="1333.333" height="1333.333" preserveAspectRatio="xMidYMid meet" version="1.0" viewBox="0 0 1000 1000"><metadata>Created by potrace 1.11, written by Peter Selinger 2001-2013</metadata><g fill="#000" stroke="none"><path d="M5365 7692 c-39 -8 -74 -40 -293 -261 -740 -750 -1071 -1078 -1189 -1178 l-53 -45 -54 46 c-30 25 -218 213 -417 417 -694 708 -912 920 -1010 982 l-27 16 -1 -1012 c-2 -2724 -1 -4311 3 -4315 6 -5 75 43 136 93 87 71 444 431 617 622 89 97 356 374 453 469 133 130 220 204 280 238 l43 24 35 -41 c116 -139 1392 -1401 1444 -1428 27 -14 151 -15 1186 -13 942 3 1156 5 1154 16 -9 34 -106 142 -312 348 -491 491 -1892 1881 -1991 1977 -105 102 -245 246 -306 315 l-31 36 31 38 c84 103 525 546 1333 1341 894 878 1274 1269 1274 1309 0 9 -2261 15 -2305 6z" transform="translate(0.000000,1000.000000) scale(0.100000,-0.100000)"/></g></svg>