<?xml version="1.0" encoding="UTF-8"?>
<!DOCTYPE svg PUBLIC "-//W3C//DTD SVG 1.1//EN" "http://www.w3.org/Graphics/SVG/1.1/DTD/svg11.dtd">
<!-- Creator: CorelDRAW 2018 (64-Bit) -->
<svg xmlns="http://www.w3.org/2000/svg" xml:space="preserve" width="4.2922in" height="4.17364in" version="1.1" style="shape-rendering:geometricPrecision; text-rendering:geometricPrecision; image-rendering:optimizeQuality; fill-rule:evenodd; clip-rule:evenodd"
viewBox="0 0 609.13 592.3"
 xmlns:xlink="http://www.w3.org/1999/xlink">
 <defs>
  <style type="text/css">
   <![CDATA[
    .fil3 {fill:none}
    .fil1 {fill:#2D57FC}
    .fil0 {fill:#FD0168}
    .fil2 {fill:#FFAA2B}
   ]]>
  </style>
 </defs>
 <g id="Layer_x0020_1">
  <metadata id="CorelCorpID_0Corel-Layer"/>
  <g id="_1887310666080">
   <path class="fil0" d="M234.7 370.29c-1.84,-5.29 3.97,-7.1 14.52,-17.74l55.93 -55.52c-7.15,-12.2 -63.08,-60.92 -72.09,-74.51 -19.1,-16.46 -79.96,-83.88 -91.65,-88.95l-0.12 324.88c17.54,-7.74 78.63,-84.48 93.42,-88.16z"/>
   <path class="fil1" d="M234.7 370.29c25.22,28.04 54.13,53.48 80.6,80.91 11.24,11.65 8.85,9.28 29.89,9.16l122.66 -0.17c-3.52,-8.37 -30.53,-32.76 -38.83,-41.02 -14.2,-14.13 -26.77,-26.81 -40.85,-40.84 -14.08,-14.04 -26.71,-26.8 -40.84,-40.85 -12.92,-12.84 -29.55,-27.67 -40.71,-41.18l-1.48 0.72 -55.93 55.52c-10.54,10.64 -16.36,12.45 -14.52,17.74z"/>
   <path class="fil2" d="M233.05 222.52c9.01,13.59 64.94,62.31 72.09,74.51l1.48 -0.72c6.08,-11.35 154.6,-151.04 161.1,-164.33l-122.54 -0.1c-22.68,-0.16 -18.08,-2.11 -30.36,10.08 -11.88,11.79 -75.43,77.6 -81.77,80.56z"/>
  </g>
  <rect class="fil3" width="609.13" height="592.3"/>
 </g>
</svg>
