<?xml version="1.0" encoding="UTF-8"?>
<!DOCTYPE svg PUBLIC "-//W3C//DTD SVG 1.1//EN" "http://www.w3.org/Graphics/SVG/1.1/DTD/svg11.dtd">
<!-- Creator: CorelDRAW 2018 (64-Bit) -->
<svg xmlns="http://www.w3.org/2000/svg" xml:space="preserve" width="3.25in" height="3.25in" version="1.1" style="shape-rendering:geometricPrecision; text-rendering:geometricPrecision; image-rendering:optimizeQuality; fill-rule:evenodd; clip-rule:evenodd"
viewBox="0 0 2104.8 2104.8"
 xmlns:xlink="http://www.w3.org/1999/xlink">
 <defs>
  <style type="text/css">
   <![CDATA[
    .fil3 {fill:none}
    .fil0 {fill:#DBDBDD}
    .fil2 {fill:url(#id0)}
    .fil1 {fill:url(#id1)}
   ]]>
  </style>
  <linearGradient id="id0" gradientUnits="userSpaceOnUse" x1="753.42" y1="1051.88" x2="1094.94" y2="743.05">
   <stop offset="0" style="stop-opacity:1; stop-color:#B1B1B3"/>
   <stop offset="1" style="stop-opacity:1; stop-color:#DBDBDD"/>
  </linearGradient>
  <linearGradient id="id1" gradientUnits="userSpaceOnUse" xlink:href="#id0" x1="753.42" y1="1051.88" x2="1110.83" y2="1402.66">
  </linearGradient>
 </defs>
 <g id="Layer_x0020_1">
  <metadata id="CorelCorpID_0Corel-Layer"/>
  <g id="_1887173447200">
   <path class="fil0" d="M795.64 1324.87c-6.77,-19.43 14.6,-26.11 53.36,-65.2l205.53 -204.06c-26.29,-44.82 -231.84,-223.88 -264.95,-273.82 -70.19,-60.5 -293.87,-308.27 -336.84,-326.9l-0.43 1193.97c64.46,-28.46 288.97,-310.47 343.32,-323.99z"/>
   <path class="fil1" d="M795.64 1324.87c92.68,103.06 198.92,196.55 296.23,297.35 41.33,42.81 32.54,34.11 109.83,33.66l450.79 -0.63c-12.95,-30.75 -112.21,-120.39 -142.71,-150.74 -52.17,-51.91 -98.38,-98.52 -150.12,-150.09 -51.76,-51.59 -98.15,-98.51 -150.09,-150.13 -47.49,-47.2 -108.6,-101.69 -149.6,-151.32l-5.44 2.64 -205.53 204.06c-38.75,39.09 -60.13,45.77 -53.36,65.2z"/>
   <path class="fil2" d="M789.58 781.8c33.1,49.94 238.66,229 264.95,273.82l5.44 -2.64c22.36,-41.72 568.16,-555.11 592.06,-603.93l-450.34 -0.37c-83.34,-0.61 -66.46,-7.74 -111.58,37.05 -43.66,43.34 -277.22,285.19 -300.52,296.07z"/>
  </g>
  <rect class="fil3" width="2104.8" height="2104.8"/>
 </g>
</svg>
