<svg xmlns="http://www.w3.org/2000/svg" xmlns:xlink="http://www.w3.org/1999/xlink" width="768.483" height="272.148" version="1.1" viewBox="0 0 2277.08 806.4" xml:space="preserve" style="shape-rendering:geometricPrecision;text-rendering:geometricPrecision;image-rendering:optimizeQuality;fill-rule:evenodd;clip-rule:evenodd"><defs><style type="text/css">.fil1{fill:#2d57fc}.fil0{fill:#fd0168}.fil2{fill:#ffaa2b}</style></defs><g id="Layer_x0020_1"><metadata id="CorelCorpID_0Corel-Layer"/><g id="_1887310690752"><path d="M187.25 478.3c-3.69,-10.6 7.97,-14.24 29.1,-35.56l112.1 -111.29c-14.34,-24.44 -126.45,-122.11 -144.5,-149.34 -38.28,-32.99 -160.28,-168.13 -183.71,-178.29l-0.24 651.19c35.16,-15.52 157.6,-169.33 187.25,-176.7z" class="fil0"/><path d="M187.25 478.3c50.55,56.21 108.49,107.2 161.56,162.17 22.54,23.35 17.75,18.6 59.9,18.36l245.86 -0.34c-7.06,-16.77 -61.2,-65.66 -77.84,-82.21 -28.46,-28.31 -53.66,-53.73 -81.87,-81.86 -28.23,-28.14 -53.53,-53.73 -81.86,-81.88 -25.9,-25.74 -59.23,-55.46 -81.59,-82.53l-2.97 1.44 -112.1 111.29c-21.14,21.32 -32.8,24.96 -29.1,35.56z" class="fil1"/><path d="M183.95 182.1c18.05,27.24 130.16,124.9 144.5,149.34l2.97 -1.44c12.2,-22.75 309.87,-302.75 322.91,-329.38l-245.62 -0.2c-45.45,-0.33 -36.25,-4.22 -60.86,20.21 -23.81,23.64 -151.19,155.54 -163.91,161.48z" class="fil2"/><path style="fill:#fff" d="M716.37 310.92l68.63 0 0 349.6 -68.63 0 0 -349.6zm192.33 82.89c-6.09,-7.47 -13.8,-13.11 -22.99,-16.9 -9.2,-3.79 -19.77,-5.75 -31.96,-5.75 -21.73,0 -38.63,6.09 -50.7,18.05 -11.96,12.07 -18.05,28.74 -18.05,50.01l-7.01 -67.37c10.81,-20.81 24.72,-37.13 41.73,-48.63 17.13,-11.61 35.98,-17.36 56.56,-17.36 15.98,0 30.46,2.3 43.34,6.9 12.88,4.6 24.14,11.38 33.8,20.35l-44.72 60.7zm299.47 45.07c0,-22.88 -6.21,-40.7 -18.39,-53.34 -12.3,-12.65 -29.54,-19.08 -52.08,-19.08 -13.91,0 -27.48,2.18 -40.93,6.44 -13.33,4.25 -25.18,10.23 -35.52,17.82l-50.12 -34.37c13.22,-15.86 30.69,-28.28 52.31,-37.13 21.73,-8.85 45.75,-13.33 72.31,-13.33 28.97,0 53.69,5.06 74.38,15.29 20.69,10.23 36.44,25.06 47.13,44.49 10.81,19.43 16.21,42.88 16.21,70.24l0 224.63 -65.3 0 0 -221.65zm-85.65 226.7c-43.11,0 -75.3,-8.97 -96.57,-26.79 -21.38,-17.82 -32.07,-44.95 -32.07,-81.39 0,-34.49 9.77,-60.47 29.32,-77.71 19.54,-17.36 49.09,-25.98 88.64,-25.98l99.33 0 4.71 55.3 -103.69 0c-18.05,0 -31.38,3.91 -40.24,11.96 -8.97,7.93 -13.33,20.12 -13.33,36.44 0,17.82 5.86,30.92 17.7,39.43 11.73,8.51 29.66,12.88 53.69,12.88 26.21,0 45.87,-2.87 58.74,-8.51 12.88,-5.52 19.43,-14.37 19.43,-26.21l7.01 49.2c-6.09,9.43 -13.57,17.13 -22.42,23.22 -8.85,5.98 -19.08,10.58 -30.81,13.57 -11.61,3.1 -24.83,4.6 -39.43,4.6zm265.45 -402.14c0,-31.04 7.13,-54.15 21.38,-69.55 14.26,-15.41 36.21,-23.11 65.76,-23.11l50.58 0 0 65.41 -49.2 0c-6.44,0 -11.38,2.41 -14.83,7.36 -3.33,4.94 -5.06,11.38 -5.06,19.2l0 397.77 -68.63 0 0 -397.08zm-37.13 47.48l174.86 0 0 58.63 -174.86 0 0 -58.63zm255.67 -140.14l68.63 0 0 68.75 -68.63 0 0 -68.75zm0 140.14l68.63 0 0 349.6 -68.63 0 0 -349.6zm264.07 351.32c-28.28,0 -48.97,-7.82 -62.19,-23.45 -13.11,-15.64 -19.66,-38.63 -19.66,-69.21l0 -360.4 68.75 0 0 361.09c0,8.51 1.61,15.06 4.94,19.66 3.45,4.6 8.39,6.9 14.83,6.9l32.99 0 0 65.41 -39.66 0zm-117.95 -351.32l157.61 0 0 61.96 -157.61 0 0 -61.96zm524.45 0l-148.87 431.45c-5.4,15.98 -12.42,28.51 -21.27,37.82 -8.74,9.43 -19.54,16.1 -32.3,20.12 -12.76,4.02 -28.51,6.09 -47.13,6.09l-13.8 0 0 -66.1 13.8 0c12.76,0 22.99,-2.53 30.46,-7.7 7.59,-5.17 14.14,-14.02 19.66,-26.56l129.33 -395.12 70.13 0zm-309.48 0l70.01 0 107.37 303.84 -38.05 74.38 -139.33 -378.22z"/></g></g></svg>